<?xml version="1.0" encoding="utf-8"?>
<svg viewBox="0 0 68 67" fill="none" xmlns="http://www.w3.org/2000/svg">
  <defs>
    <linearGradient id="paint0_linear_4269_89" x1="33.9999" y1="66.2015" x2="33.9999" y2="0.18396" gradientUnits="userSpaceOnUse">
      <stop stop-color="#1FAF38"/>
      <stop offset="1" stop-color="#60D669"/>
    </linearGradient>
  </defs>
  <path d="M0.493799 32.8953C0.492158 38.66 2.04091 44.2888 4.98583 49.2501L0.212158 66.2015L18.049 61.6529C22.9825 64.265 28.51 65.6337 34.1272 65.634H34.1419C52.6851 65.634 67.7797 50.9588 67.7876 32.9211C67.7911 24.1805 64.2944 15.9615 57.9414 9.77791C51.5894 3.59487 43.1416 0.187949 34.1406 0.18396C15.5952 0.18396 0.501729 14.8584 0.494072 32.8953" fill="url(#paint0_linear_4269_89)"/>
  <path d="M 24.801 17.851 C 24.148 16.441 23.462 16.412 22.841 16.387 C 22.333 16.366 21.752 16.368 21.172 16.368 C 20.591 16.368 19.648 16.58 18.85 17.427 C 18.052 18.275 15.802 20.324 15.802 24.491 C 15.802 28.658 18.923 32.685 19.358 33.251 C 19.793 33.815 25.382 42.64 34.234 46.035 C 41.591 48.856 43.088 48.295 44.684 48.154 C 46.281 48.013 49.837 46.106 50.562 44.128 C 51.288 42.15 51.288 40.455 51.071 40.101 C 50.853 39.748 50.272 39.536 49.401 39.113 C 48.53 38.689 44.249 36.64 43.45 36.357 C 42.652 36.075 42.072 35.934 41.491 36.782 C 40.91 37.629 39.242 39.536 38.734 40.101 C 38.226 40.667 37.718 40.738 36.847 40.314 C 35.976 39.889 33.171 38.996 29.844 36.111 C 27.255 33.866 25.507 31.093 24.999 30.245 C 24.491 29.398 24.944 28.939 25.381 28.517 C 25.772 28.138 26.252 27.528 26.688 27.034 C 27.122 26.539 27.267 26.186 27.558 25.621 C 27.848 25.056 27.703 24.561 27.486 24.138 C 27.267 23.714 25.575 19.525 24.801 17.851 Z" fill="white"/>
</svg>